<svg xmlns="http://www.w3.org/2000/svg" viewBox="0 0 1000 480" preserveAspectRatio="xMidYMid meet"><g fill="#aab6ff"><circle cx="342" cy="77" r="2.05"/><circle cx="353" cy="77" r="2.05"/><circle cx="365" cy="77" r="2.05"/><circle cx="376" cy="77" r="2.05"/><circle cx="123" cy="89" r="2.05"/><circle cx="227" cy="89" r="2.05"/><circle cx="238" cy="89" r="2.05"/><circle cx="250" cy="89" r="2.05"/><circle cx="261" cy="89" r="2.05"/><circle cx="273" cy="89" r="2.05"/><circle cx="284" cy="89" r="2.05"/><circle cx="342" cy="89" r="2.05"/><circle cx="353" cy="89" r="2.05"/><circle cx="365" cy="89" r="2.05"/><circle cx="376" cy="89" r="2.05"/><circle cx="388" cy="89" r="2.05"/><circle cx="100" cy="100" r="2.05"/><circle cx="112" cy="100" r="2.05"/><circle cx="123" cy="100" r="2.05"/><circle cx="135" cy="100" r="2.05"/><circle cx="181" cy="100" r="2.05"/><circle cx="192" cy="100" r="2.05"/><circle cx="204" cy="100" r="2.05"/><circle cx="215" cy="100" r="2.05"/><circle cx="227" cy="100" r="2.05"/><circle cx="238" cy="100" r="2.05"/><circle cx="250" cy="100" r="2.05"/><circle cx="261" cy="100" r="2.05"/><circle cx="273" cy="100" r="2.05"/><circle cx="284" cy="100" r="2.05"/><circle cx="296" cy="100" r="2.05"/><circle cx="342" cy="100" r="2.05"/><circle cx="353" cy="100" r="2.05"/><circle cx="365" cy="100" r="2.05"/><circle cx="376" cy="100" r="2.05"/><circle cx="388" cy="100" r="2.05"/><circle cx="710" cy="100" r="2.05"/><circle cx="721" cy="100" r="2.05"/><circle cx="733" cy="100" r="2.05"/><circle cx="100" cy="112" r="2.05"/><circle cx="112" cy="112" r="2.05"/><circle cx="123" cy="112" r="2.05"/><circle cx="135" cy="112" r="2.05"/><circle cx="146" cy="112" r="2.05"/><circle cx="158" cy="112" r="2.05"/><circle cx="169" cy="112" r="2.05"/><circle cx="181" cy="112" r="2.05"/><circle cx="192" cy="112" r="2.05"/><circle cx="204" cy="112" r="2.05"/><circle cx="215" cy="112" r="2.05"/><circle cx="227" cy="112" r="2.05"/><circle cx="238" cy="112" r="2.05"/><circle cx="250" cy="112" r="2.05"/><circle cx="261" cy="112" r="2.05"/><circle cx="273" cy="112" r="2.05"/><circle cx="284" cy="112" r="2.05"/><circle cx="296" cy="112" r="2.05"/><circle cx="353" cy="112" r="2.05"/><circle cx="365" cy="112" r="2.05"/><circle cx="376" cy="112" r="2.05"/><circle cx="514" cy="112" r="2.05"/><circle cx="526" cy="112" r="2.05"/><circle cx="675" cy="112" r="2.05"/><circle cx="687" cy="112" r="2.05"/><circle cx="698" cy="112" r="2.05"/><circle cx="710" cy="112" r="2.05"/><circle cx="721" cy="112" r="2.05"/><circle cx="733" cy="112" r="2.05"/><circle cx="744" cy="112" r="2.05"/><circle cx="756" cy="112" r="2.05"/><circle cx="767" cy="112" r="2.05"/><circle cx="100" cy="123" r="2.05"/><circle cx="112" cy="123" r="2.05"/><circle cx="123" cy="123" r="2.05"/><circle cx="135" cy="123" r="2.05"/><circle cx="146" cy="123" r="2.05"/><circle cx="158" cy="123" r="2.05"/><circle cx="169" cy="123" r="2.05"/><circle cx="181" cy="123" r="2.05"/><circle cx="192" cy="123" r="2.05"/><circle cx="204" cy="123" r="2.05"/><circle cx="215" cy="123" r="2.05"/><circle cx="227" cy="123" r="2.05"/><circle cx="238" cy="123" r="2.05"/><circle cx="250" cy="123" r="2.05"/><circle cx="261" cy="123" r="2.05"/><circle cx="273" cy="123" r="2.05"/><circle cx="284" cy="123" r="2.05"/><circle cx="296" cy="123" r="2.05"/><circle cx="491" cy="123" r="2.05"/><circle cx="503" cy="123" r="2.05"/><circle cx="514" cy="123" r="2.05"/><circle cx="526" cy="123" r="2.05"/><circle cx="537" cy="123" r="2.05"/><circle cx="583" cy="123" r="2.05"/><circle cx="595" cy="123" r="2.05"/><circle cx="606" cy="123" r="2.05"/><circle cx="618" cy="123" r="2.05"/><circle cx="629" cy="123" r="2.05"/><circle cx="641" cy="123" r="2.05"/><circle cx="652" cy="123" r="2.05"/><circle cx="664" cy="123" r="2.05"/><circle cx="675" cy="123" r="2.05"/><circle cx="687" cy="123" r="2.05"/><circle cx="698" cy="123" r="2.05"/><circle cx="710" cy="123" r="2.05"/><circle cx="721" cy="123" r="2.05"/><circle cx="733" cy="123" r="2.05"/><circle cx="744" cy="123" r="2.05"/><circle cx="756" cy="123" r="2.05"/><circle cx="767" cy="123" r="2.05"/><circle cx="779" cy="123" r="2.05"/><circle cx="112" cy="135" r="2.05"/><circle cx="123" cy="135" r="2.05"/><circle cx="135" cy="135" r="2.05"/><circle cx="146" cy="135" r="2.05"/><circle cx="158" cy="135" r="2.05"/><circle cx="169" cy="135" r="2.05"/><circle cx="181" cy="135" r="2.05"/><circle cx="192" cy="135" r="2.05"/><circle cx="204" cy="135" r="2.05"/><circle cx="215" cy="135" r="2.05"/><circle cx="227" cy="135" r="2.05"/><circle cx="238" cy="135" r="2.05"/><circle cx="250" cy="135" r="2.05"/><circle cx="261" cy="135" r="2.05"/><circle cx="273" cy="135" r="2.05"/><circle cx="284" cy="135" r="2.05"/><circle cx="296" cy="135" r="2.05"/><circle cx="468" cy="135" r="2.05"/><circle cx="480" cy="135" r="2.05"/><circle cx="491" cy="135" r="2.05"/><circle cx="503" cy="135" r="2.05"/><circle cx="514" cy="135" r="2.05"/><circle cx="526" cy="135" r="2.05"/><circle cx="537" cy="135" r="2.05"/><circle cx="572" cy="135" r="2.05"/><circle cx="583" cy="135" r="2.05"/><circle cx="595" cy="135" r="2.05"/><circle cx="606" cy="135" r="2.05"/><circle cx="618" cy="135" r="2.05"/><circle cx="629" cy="135" r="2.05"/><circle cx="641" cy="135" r="2.05"/><circle cx="652" cy="135" r="2.05"/><circle cx="664" cy="135" r="2.05"/><circle cx="675" cy="135" r="2.05"/><circle cx="687" cy="135" r="2.05"/><circle cx="698" cy="135" r="2.05"/><circle cx="710" cy="135" r="2.05"/><circle cx="721" cy="135" r="2.05"/><circle cx="733" cy="135" r="2.05"/><circle cx="744" cy="135" r="2.05"/><circle cx="756" cy="135" r="2.05"/><circle cx="767" cy="135" r="2.05"/><circle cx="779" cy="135" r="2.05"/><circle cx="112" cy="146" r="2.05"/><circle cx="123" cy="146" r="2.05"/><circle cx="135" cy="146" r="2.05"/><circle cx="146" cy="146" r="2.05"/><circle cx="158" cy="146" r="2.05"/><circle cx="169" cy="146" r="2.05"/><circle cx="181" cy="146" r="2.05"/><circle cx="192" cy="146" r="2.05"/><circle cx="204" cy="146" r="2.05"/><circle cx="215" cy="146" r="2.05"/><circle cx="227" cy="146" r="2.05"/><circle cx="238" cy="146" r="2.05"/><circle cx="250" cy="146" r="2.05"/><circle cx="261" cy="146" r="2.05"/><circle cx="273" cy="146" r="2.05"/><circle cx="284" cy="146" r="2.05"/><circle cx="468" cy="146" r="2.05"/><circle cx="480" cy="146" r="2.05"/><circle cx="491" cy="146" r="2.05"/><circle cx="503" cy="146" r="2.05"/><circle cx="514" cy="146" r="2.05"/><circle cx="526" cy="146" r="2.05"/><circle cx="537" cy="146" r="2.05"/><circle cx="572" cy="146" r="2.05"/><circle cx="583" cy="146" r="2.05"/><circle cx="595" cy="146" r="2.05"/><circle cx="606" cy="146" r="2.05"/><circle cx="618" cy="146" r="2.05"/><circle cx="629" cy="146" r="2.05"/><circle cx="641" cy="146" r="2.05"/><circle cx="652" cy="146" r="2.05"/><circle cx="664" cy="146" r="2.05"/><circle cx="675" cy="146" r="2.05"/><circle cx="687" cy="146" r="2.05"/><circle cx="698" cy="146" r="2.05"/><circle cx="710" cy="146" r="2.05"/><circle cx="721" cy="146" r="2.05"/><circle cx="733" cy="146" r="2.05"/><circle cx="744" cy="146" r="2.05"/><circle cx="756" cy="146" r="2.05"/><circle cx="767" cy="146" r="2.05"/><circle cx="779" cy="146" r="2.05"/><circle cx="790" cy="146" r="2.05"/><circle cx="112" cy="158" r="2.05"/><circle cx="123" cy="158" r="2.05"/><circle cx="135" cy="158" r="2.05"/><circle cx="146" cy="158" r="2.05"/><circle cx="158" cy="158" r="2.05"/><circle cx="169" cy="158" r="2.05"/><circle cx="181" cy="158" r="2.05"/><circle cx="192" cy="158" r="2.05"/><circle cx="204" cy="158" r="2.05"/><circle cx="215" cy="158" r="2.05"/><circle cx="227" cy="158" r="2.05"/><circle cx="238" cy="158" r="2.05"/><circle cx="250" cy="158" r="2.05"/><circle cx="261" cy="158" r="2.05"/><circle cx="468" cy="158" r="2.05"/><circle cx="480" cy="158" r="2.05"/><circle cx="491" cy="158" r="2.05"/><circle cx="503" cy="158" r="2.05"/><circle cx="514" cy="158" r="2.05"/><circle cx="526" cy="158" r="2.05"/><circle cx="560" cy="158" r="2.05"/><circle cx="572" cy="158" r="2.05"/><circle cx="583" cy="158" r="2.05"/><circle cx="595" cy="158" r="2.05"/><circle cx="606" cy="158" r="2.05"/><circle cx="618" cy="158" r="2.05"/><circle cx="629" cy="158" r="2.05"/><circle cx="641" cy="158" r="2.05"/><circle cx="652" cy="158" r="2.05"/><circle cx="664" cy="158" r="2.05"/><circle cx="675" cy="158" r="2.05"/><circle cx="687" cy="158" r="2.05"/><circle cx="698" cy="158" r="2.05"/><circle cx="710" cy="158" r="2.05"/><circle cx="721" cy="158" r="2.05"/><circle cx="733" cy="158" r="2.05"/><circle cx="744" cy="158" r="2.05"/><circle cx="756" cy="158" r="2.05"/><circle cx="767" cy="158" r="2.05"/><circle cx="779" cy="158" r="2.05"/><circle cx="790" cy="158" r="2.05"/><circle cx="112" cy="169" r="2.05"/><circle cx="123" cy="169" r="2.05"/><circle cx="135" cy="169" r="2.05"/><circle cx="146" cy="169" r="2.05"/><circle cx="158" cy="169" r="2.05"/><circle cx="169" cy="169" r="2.05"/><circle cx="181" cy="169" r="2.05"/><circle cx="192" cy="169" r="2.05"/><circle cx="204" cy="169" r="2.05"/><circle cx="215" cy="169" r="2.05"/><circle cx="227" cy="169" r="2.05"/><circle cx="238" cy="169" r="2.05"/><circle cx="250" cy="169" r="2.05"/><circle cx="261" cy="169" r="2.05"/><circle cx="480" cy="169" r="2.05"/><circle cx="491" cy="169" r="2.05"/><circle cx="503" cy="169" r="2.05"/><circle cx="514" cy="169" r="2.05"/><circle cx="526" cy="169" r="2.05"/><circle cx="560" cy="169" r="2.05"/><circle cx="572" cy="169" r="2.05"/><circle cx="583" cy="169" r="2.05"/><circle cx="595" cy="169" r="2.05"/><circle cx="606" cy="169" r="2.05"/><circle cx="618" cy="169" r="2.05"/><circle cx="629" cy="169" r="2.05"/><circle cx="641" cy="169" r="2.05"/><circle cx="652" cy="169" r="2.05"/><circle cx="664" cy="169" r="2.05"/><circle cx="675" cy="169" r="2.05"/><circle cx="687" cy="169" r="2.05"/><circle cx="698" cy="169" r="2.05"/><circle cx="710" cy="169" r="2.05"/><circle cx="721" cy="169" r="2.05"/><circle cx="733" cy="169" r="2.05"/><circle cx="744" cy="169" r="2.05"/><circle cx="756" cy="169" r="2.05"/><circle cx="767" cy="169" r="2.05"/><circle cx="779" cy="169" r="2.05"/><circle cx="112" cy="181" r="2.05"/><circle cx="123" cy="181" r="2.05"/><circle cx="135" cy="181" r="2.05"/><circle cx="146" cy="181" r="2.05"/><circle cx="158" cy="181" r="2.05"/><circle cx="169" cy="181" r="2.05"/><circle cx="181" cy="181" r="2.05"/><circle cx="192" cy="181" r="2.05"/><circle cx="204" cy="181" r="2.05"/><circle cx="215" cy="181" r="2.05"/><circle cx="227" cy="181" r="2.05"/><circle cx="238" cy="181" r="2.05"/><circle cx="250" cy="181" r="2.05"/><circle cx="560" cy="181" r="2.05"/><circle cx="572" cy="181" r="2.05"/><circle cx="583" cy="181" r="2.05"/><circle cx="595" cy="181" r="2.05"/><circle cx="606" cy="181" r="2.05"/><circle cx="618" cy="181" r="2.05"/><circle cx="629" cy="181" r="2.05"/><circle cx="641" cy="181" r="2.05"/><circle cx="652" cy="181" r="2.05"/><circle cx="664" cy="181" r="2.05"/><circle cx="675" cy="181" r="2.05"/><circle cx="687" cy="181" r="2.05"/><circle cx="698" cy="181" r="2.05"/><circle cx="710" cy="181" r="2.05"/><circle cx="721" cy="181" r="2.05"/><circle cx="733" cy="181" r="2.05"/><circle cx="744" cy="181" r="2.05"/><circle cx="756" cy="181" r="2.05"/><circle cx="767" cy="181" r="2.05"/><circle cx="779" cy="181" r="2.05"/><circle cx="790" cy="181" r="2.05"/><circle cx="802" cy="181" r="2.05"/><circle cx="825" cy="181" r="2.05"/><circle cx="836" cy="181" r="2.05"/><circle cx="123" cy="192" r="2.05"/><circle cx="135" cy="192" r="2.05"/><circle cx="146" cy="192" r="2.05"/><circle cx="158" cy="192" r="2.05"/><circle cx="169" cy="192" r="2.05"/><circle cx="181" cy="192" r="2.05"/><circle cx="192" cy="192" r="2.05"/><circle cx="204" cy="192" r="2.05"/><circle cx="215" cy="192" r="2.05"/><circle cx="227" cy="192" r="2.05"/><circle cx="238" cy="192" r="2.05"/><circle cx="572" cy="192" r="2.05"/><circle cx="583" cy="192" r="2.05"/><circle cx="595" cy="192" r="2.05"/><circle cx="606" cy="192" r="2.05"/><circle cx="618" cy="192" r="2.05"/><circle cx="629" cy="192" r="2.05"/><circle cx="641" cy="192" r="2.05"/><circle cx="652" cy="192" r="2.05"/><circle cx="664" cy="192" r="2.05"/><circle cx="675" cy="192" r="2.05"/><circle cx="687" cy="192" r="2.05"/><circle cx="698" cy="192" r="2.05"/><circle cx="710" cy="192" r="2.05"/><circle cx="721" cy="192" r="2.05"/><circle cx="733" cy="192" r="2.05"/><circle cx="744" cy="192" r="2.05"/><circle cx="756" cy="192" r="2.05"/><circle cx="767" cy="192" r="2.05"/><circle cx="779" cy="192" r="2.05"/><circle cx="790" cy="192" r="2.05"/><circle cx="802" cy="192" r="2.05"/><circle cx="813" cy="192" r="2.05"/><circle cx="825" cy="192" r="2.05"/><circle cx="836" cy="192" r="2.05"/><circle cx="123" cy="204" r="2.05"/><circle cx="135" cy="204" r="2.05"/><circle cx="146" cy="204" r="2.05"/><circle cx="158" cy="204" r="2.05"/><circle cx="169" cy="204" r="2.05"/><circle cx="181" cy="204" r="2.05"/><circle cx="192" cy="204" r="2.05"/><circle cx="204" cy="204" r="2.05"/><circle cx="215" cy="204" r="2.05"/><circle cx="491" cy="204" r="2.05"/><circle cx="503" cy="204" r="2.05"/><circle cx="514" cy="204" r="2.05"/><circle cx="526" cy="204" r="2.05"/><circle cx="583" cy="204" r="2.05"/><circle cx="595" cy="204" r="2.05"/><circle cx="606" cy="204" r="2.05"/><circle cx="618" cy="204" r="2.05"/><circle cx="629" cy="204" r="2.05"/><circle cx="641" cy="204" r="2.05"/><circle cx="652" cy="204" r="2.05"/><circle cx="664" cy="204" r="2.05"/><circle cx="675" cy="204" r="2.05"/><circle cx="687" cy="204" r="2.05"/><circle cx="698" cy="204" r="2.05"/><circle cx="710" cy="204" r="2.05"/><circle cx="744" cy="204" r="2.05"/><circle cx="756" cy="204" r="2.05"/><circle cx="767" cy="204" r="2.05"/><circle cx="779" cy="204" r="2.05"/><circle cx="790" cy="204" r="2.05"/><circle cx="802" cy="204" r="2.05"/><circle cx="813" cy="204" r="2.05"/><circle cx="825" cy="204" r="2.05"/><circle cx="836" cy="204" r="2.05"/><circle cx="123" cy="215" r="2.05"/><circle cx="135" cy="215" r="2.05"/><circle cx="146" cy="215" r="2.05"/><circle cx="158" cy="215" r="2.05"/><circle cx="169" cy="215" r="2.05"/><circle cx="181" cy="215" r="2.05"/><circle cx="192" cy="215" r="2.05"/><circle cx="204" cy="215" r="2.05"/><circle cx="480" cy="215" r="2.05"/><circle cx="491" cy="215" r="2.05"/><circle cx="503" cy="215" r="2.05"/><circle cx="514" cy="215" r="2.05"/><circle cx="526" cy="215" r="2.05"/><circle cx="537" cy="215" r="2.05"/><circle cx="549" cy="215" r="2.05"/><circle cx="606" cy="215" r="2.05"/><circle cx="618" cy="215" r="2.05"/><circle cx="629" cy="215" r="2.05"/><circle cx="641" cy="215" r="2.05"/><circle cx="652" cy="215" r="2.05"/><circle cx="664" cy="215" r="2.05"/><circle cx="675" cy="215" r="2.05"/><circle cx="687" cy="215" r="2.05"/><circle cx="744" cy="215" r="2.05"/><circle cx="756" cy="215" r="2.05"/><circle cx="767" cy="215" r="2.05"/><circle cx="779" cy="215" r="2.05"/><circle cx="790" cy="215" r="2.05"/><circle cx="802" cy="215" r="2.05"/><circle cx="813" cy="215" r="2.05"/><circle cx="825" cy="215" r="2.05"/><circle cx="135" cy="227" r="2.05"/><circle cx="146" cy="227" r="2.05"/><circle cx="158" cy="227" r="2.05"/><circle cx="169" cy="227" r="2.05"/><circle cx="181" cy="227" r="2.05"/><circle cx="192" cy="227" r="2.05"/><circle cx="468" cy="227" r="2.05"/><circle cx="480" cy="227" r="2.05"/><circle cx="491" cy="227" r="2.05"/><circle cx="503" cy="227" r="2.05"/><circle cx="514" cy="227" r="2.05"/><circle cx="526" cy="227" r="2.05"/><circle cx="537" cy="227" r="2.05"/><circle cx="549" cy="227" r="2.05"/><circle cx="560" cy="227" r="2.05"/><circle cx="641" cy="227" r="2.05"/><circle cx="652" cy="227" r="2.05"/><circle cx="664" cy="227" r="2.05"/><circle cx="675" cy="227" r="2.05"/><circle cx="687" cy="227" r="2.05"/><circle cx="744" cy="227" r="2.05"/><circle cx="756" cy="227" r="2.05"/><circle cx="767" cy="227" r="2.05"/><circle cx="779" cy="227" r="2.05"/><circle cx="790" cy="227" r="2.05"/><circle cx="802" cy="227" r="2.05"/><circle cx="813" cy="227" r="2.05"/><circle cx="158" cy="238" r="2.05"/><circle cx="169" cy="238" r="2.05"/><circle cx="468" cy="238" r="2.05"/><circle cx="480" cy="238" r="2.05"/><circle cx="491" cy="238" r="2.05"/><circle cx="503" cy="238" r="2.05"/><circle cx="514" cy="238" r="2.05"/><circle cx="526" cy="238" r="2.05"/><circle cx="537" cy="238" r="2.05"/><circle cx="549" cy="238" r="2.05"/><circle cx="560" cy="238" r="2.05"/><circle cx="641" cy="238" r="2.05"/><circle cx="652" cy="238" r="2.05"/><circle cx="664" cy="238" r="2.05"/><circle cx="675" cy="238" r="2.05"/><circle cx="687" cy="238" r="2.05"/><circle cx="767" cy="238" r="2.05"/><circle cx="779" cy="238" r="2.05"/><circle cx="790" cy="238" r="2.05"/><circle cx="802" cy="238" r="2.05"/><circle cx="468" cy="250" r="2.05"/><circle cx="480" cy="250" r="2.05"/><circle cx="491" cy="250" r="2.05"/><circle cx="503" cy="250" r="2.05"/><circle cx="514" cy="250" r="2.05"/><circle cx="526" cy="250" r="2.05"/><circle cx="537" cy="250" r="2.05"/><circle cx="549" cy="250" r="2.05"/><circle cx="560" cy="250" r="2.05"/><circle cx="572" cy="250" r="2.05"/><circle cx="641" cy="250" r="2.05"/><circle cx="652" cy="250" r="2.05"/><circle cx="664" cy="250" r="2.05"/><circle cx="675" cy="250" r="2.05"/><circle cx="687" cy="250" r="2.05"/><circle cx="319" cy="261" r="2.05"/><circle cx="330" cy="261" r="2.05"/><circle cx="468" cy="261" r="2.05"/><circle cx="480" cy="261" r="2.05"/><circle cx="491" cy="261" r="2.05"/><circle cx="503" cy="261" r="2.05"/><circle cx="514" cy="261" r="2.05"/><circle cx="526" cy="261" r="2.05"/><circle cx="537" cy="261" r="2.05"/><circle cx="549" cy="261" r="2.05"/><circle cx="560" cy="261" r="2.05"/><circle cx="572" cy="261" r="2.05"/><circle cx="652" cy="261" r="2.05"/><circle cx="664" cy="261" r="2.05"/><circle cx="675" cy="261" r="2.05"/><circle cx="296" cy="273" r="2.05"/><circle cx="307" cy="273" r="2.05"/><circle cx="319" cy="273" r="2.05"/><circle cx="330" cy="273" r="2.05"/><circle cx="342" cy="273" r="2.05"/><circle cx="468" cy="273" r="2.05"/><circle cx="480" cy="273" r="2.05"/><circle cx="491" cy="273" r="2.05"/><circle cx="503" cy="273" r="2.05"/><circle cx="514" cy="273" r="2.05"/><circle cx="526" cy="273" r="2.05"/><circle cx="537" cy="273" r="2.05"/><circle cx="549" cy="273" r="2.05"/><circle cx="560" cy="273" r="2.05"/><circle cx="572" cy="273" r="2.05"/><circle cx="284" cy="284" r="2.05"/><circle cx="296" cy="284" r="2.05"/><circle cx="307" cy="284" r="2.05"/><circle cx="319" cy="284" r="2.05"/><circle cx="330" cy="284" r="2.05"/><circle cx="342" cy="284" r="2.05"/><circle cx="468" cy="284" r="2.05"/><circle cx="480" cy="284" r="2.05"/><circle cx="491" cy="284" r="2.05"/><circle cx="503" cy="284" r="2.05"/><circle cx="514" cy="284" r="2.05"/><circle cx="526" cy="284" r="2.05"/><circle cx="537" cy="284" r="2.05"/><circle cx="549" cy="284" r="2.05"/><circle cx="560" cy="284" r="2.05"/><circle cx="572" cy="284" r="2.05"/><circle cx="733" cy="284" r="2.05"/><circle cx="744" cy="284" r="2.05"/><circle cx="756" cy="284" r="2.05"/><circle cx="767" cy="284" r="2.05"/><circle cx="779" cy="284" r="2.05"/><circle cx="790" cy="284" r="2.05"/><circle cx="273" cy="296" r="2.05"/><circle cx="284" cy="296" r="2.05"/><circle cx="296" cy="296" r="2.05"/><circle cx="307" cy="296" r="2.05"/><circle cx="319" cy="296" r="2.05"/><circle cx="330" cy="296" r="2.05"/><circle cx="342" cy="296" r="2.05"/><circle cx="480" cy="296" r="2.05"/><circle cx="491" cy="296" r="2.05"/><circle cx="503" cy="296" r="2.05"/><circle cx="514" cy="296" r="2.05"/><circle cx="526" cy="296" r="2.05"/><circle cx="537" cy="296" r="2.05"/><circle cx="549" cy="296" r="2.05"/><circle cx="560" cy="296" r="2.05"/><circle cx="572" cy="296" r="2.05"/><circle cx="721" cy="296" r="2.05"/><circle cx="733" cy="296" r="2.05"/><circle cx="744" cy="296" r="2.05"/><circle cx="756" cy="296" r="2.05"/><circle cx="767" cy="296" r="2.05"/><circle cx="779" cy="296" r="2.05"/><circle cx="790" cy="296" r="2.05"/><circle cx="802" cy="296" r="2.05"/><circle cx="813" cy="296" r="2.05"/><circle cx="273" cy="307" r="2.05"/><circle cx="284" cy="307" r="2.05"/><circle cx="296" cy="307" r="2.05"/><circle cx="307" cy="307" r="2.05"/><circle cx="319" cy="307" r="2.05"/><circle cx="330" cy="307" r="2.05"/><circle cx="342" cy="307" r="2.05"/><circle cx="480" cy="307" r="2.05"/><circle cx="491" cy="307" r="2.05"/><circle cx="503" cy="307" r="2.05"/><circle cx="514" cy="307" r="2.05"/><circle cx="526" cy="307" r="2.05"/><circle cx="537" cy="307" r="2.05"/><circle cx="549" cy="307" r="2.05"/><circle cx="560" cy="307" r="2.05"/><circle cx="744" cy="307" r="2.05"/><circle cx="756" cy="307" r="2.05"/><circle cx="767" cy="307" r="2.05"/><circle cx="779" cy="307" r="2.05"/><circle cx="790" cy="307" r="2.05"/><circle cx="802" cy="307" r="2.05"/><circle cx="813" cy="307" r="2.05"/><circle cx="261" cy="319" r="2.05"/><circle cx="273" cy="319" r="2.05"/><circle cx="284" cy="319" r="2.05"/><circle cx="296" cy="319" r="2.05"/><circle cx="307" cy="319" r="2.05"/><circle cx="319" cy="319" r="2.05"/><circle cx="330" cy="319" r="2.05"/><circle cx="342" cy="319" r="2.05"/><circle cx="491" cy="319" r="2.05"/><circle cx="503" cy="319" r="2.05"/><circle cx="514" cy="319" r="2.05"/><circle cx="526" cy="319" r="2.05"/><circle cx="537" cy="319" r="2.05"/><circle cx="549" cy="319" r="2.05"/><circle cx="560" cy="319" r="2.05"/><circle cx="572" cy="319" r="2.05"/><circle cx="261" cy="330" r="2.05"/><circle cx="273" cy="330" r="2.05"/><circle cx="284" cy="330" r="2.05"/><circle cx="296" cy="330" r="2.05"/><circle cx="307" cy="330" r="2.05"/><circle cx="319" cy="330" r="2.05"/><circle cx="330" cy="330" r="2.05"/><circle cx="342" cy="330" r="2.05"/><circle cx="503" cy="330" r="2.05"/><circle cx="514" cy="330" r="2.05"/><circle cx="526" cy="330" r="2.05"/><circle cx="537" cy="330" r="2.05"/><circle cx="549" cy="330" r="2.05"/><circle cx="560" cy="330" r="2.05"/><circle cx="572" cy="330" r="2.05"/><circle cx="825" cy="330" r="2.05"/><circle cx="836" cy="330" r="2.05"/><circle cx="848" cy="330" r="2.05"/><circle cx="261" cy="342" r="2.05"/><circle cx="273" cy="342" r="2.05"/><circle cx="284" cy="342" r="2.05"/><circle cx="296" cy="342" r="2.05"/><circle cx="307" cy="342" r="2.05"/><circle cx="319" cy="342" r="2.05"/><circle cx="330" cy="342" r="2.05"/><circle cx="342" cy="342" r="2.05"/><circle cx="537" cy="342" r="2.05"/><circle cx="549" cy="342" r="2.05"/><circle cx="560" cy="342" r="2.05"/><circle cx="802" cy="342" r="2.05"/><circle cx="813" cy="342" r="2.05"/><circle cx="825" cy="342" r="2.05"/><circle cx="836" cy="342" r="2.05"/><circle cx="848" cy="342" r="2.05"/><circle cx="859" cy="342" r="2.05"/><circle cx="273" cy="353" r="2.05"/><circle cx="284" cy="353" r="2.05"/><circle cx="296" cy="353" r="2.05"/><circle cx="307" cy="353" r="2.05"/><circle cx="319" cy="353" r="2.05"/><circle cx="330" cy="353" r="2.05"/><circle cx="342" cy="353" r="2.05"/><circle cx="790" cy="353" r="2.05"/><circle cx="802" cy="353" r="2.05"/><circle cx="813" cy="353" r="2.05"/><circle cx="825" cy="353" r="2.05"/><circle cx="836" cy="353" r="2.05"/><circle cx="848" cy="353" r="2.05"/><circle cx="859" cy="353" r="2.05"/><circle cx="871" cy="353" r="2.05"/><circle cx="273" cy="365" r="2.05"/><circle cx="284" cy="365" r="2.05"/><circle cx="296" cy="365" r="2.05"/><circle cx="307" cy="365" r="2.05"/><circle cx="319" cy="365" r="2.05"/><circle cx="330" cy="365" r="2.05"/><circle cx="790" cy="365" r="2.05"/><circle cx="802" cy="365" r="2.05"/><circle cx="813" cy="365" r="2.05"/><circle cx="825" cy="365" r="2.05"/><circle cx="836" cy="365" r="2.05"/><circle cx="848" cy="365" r="2.05"/><circle cx="859" cy="365" r="2.05"/><circle cx="871" cy="365" r="2.05"/><circle cx="273" cy="376" r="2.05"/><circle cx="284" cy="376" r="2.05"/><circle cx="296" cy="376" r="2.05"/><circle cx="307" cy="376" r="2.05"/><circle cx="319" cy="376" r="2.05"/><circle cx="802" cy="376" r="2.05"/><circle cx="813" cy="376" r="2.05"/><circle cx="825" cy="376" r="2.05"/><circle cx="836" cy="376" r="2.05"/><circle cx="848" cy="376" r="2.05"/><circle cx="859" cy="376" r="2.05"/><circle cx="871" cy="376" r="2.05"/><circle cx="273" cy="388" r="2.05"/><circle cx="284" cy="388" r="2.05"/><circle cx="296" cy="388" r="2.05"/><circle cx="307" cy="388" r="2.05"/><circle cx="813" cy="388" r="2.05"/><circle cx="825" cy="388" r="2.05"/><circle cx="836" cy="388" r="2.05"/><circle cx="848" cy="388" r="2.05"/><circle cx="859" cy="388" r="2.05"/><circle cx="871" cy="388" r="2.05"/><circle cx="882" cy="388" r="2.05"/><circle cx="273" cy="399" r="2.05"/><circle cx="284" cy="399" r="2.05"/><circle cx="296" cy="399" r="2.05"/><circle cx="307" cy="399" r="2.05"/><circle cx="871" cy="399" r="2.05"/><circle cx="273" cy="411" r="2.05"/><circle cx="284" cy="411" r="2.05"/><circle cx="296" cy="411" r="2.05"/><circle cx="307" cy="411" r="2.05"/><circle cx="273" cy="422" r="2.05"/><circle cx="284" cy="422" r="2.05"/><circle cx="296" cy="422" r="2.05"/><circle cx="307" cy="422" r="2.05"/><circle cx="273" cy="434" r="2.05"/><circle cx="284" cy="434" r="2.05"/><circle cx="296" cy="434" r="2.05"/><circle cx="307" cy="434" r="2.05"/><circle cx="284" cy="445" r="2.05"/></g></svg>